<svg version="1.1" id="Layer_1" xmlns="http://www.w3.org/2000/svg" xmlns:xlink="http://www.w3.org/1999/xlink" x="0px" y="0px"
	 width="100%" viewBox="0 0 93 83" enable-background="new 0 0 93 83" xml:space="preserve">
<path fill="#030303" opacity="1.000000" stroke="none" 
	d="
M64.000000,84.000000 
	C42.666672,84.000000 21.833342,84.000000 1.000008,84.000000 
	C1.000006,56.333344 1.000006,28.666683 1.000003,1.000020 
	C31.999985,1.000013 62.999969,1.000013 93.999969,1.000006 
	C93.999977,28.666647 93.999977,56.333294 93.999985,83.999969 
	C84.166664,84.000000 74.333336,84.000000 64.000000,84.000000 
M20.096355,75.315468 
	C20.189047,75.354485 20.281740,75.393501 20.374430,75.432518 
	C20.273918,75.270287 20.173405,75.108055 19.926298,74.677795 
	C19.826551,74.638382 19.726807,74.598969 19.627060,74.559555 
	C19.734896,74.728752 19.842731,74.897949 20.096355,75.315468 
M82.649834,58.930870 
	C83.103653,58.091324 83.557472,57.251781 84.614037,55.867298 
	C85.128372,54.733757 85.642715,53.600220 86.397148,51.937531 
	C70.468330,51.937531 55.121017,51.915497 39.774342,52.004486 
	C39.029728,52.008801 38.290771,52.988255 37.288197,53.883759 
	C37.284927,54.189426 37.226067,54.483982 36.738827,55.341442 
	C35.650364,56.898571 34.561897,58.455696 33.473434,60.012825 
	C34.071354,60.365738 34.669273,60.718651 35.267197,61.071568 
	C36.176018,59.041439 37.084839,57.011311 38.061867,54.523838 
	C38.061867,54.523838 38.063408,54.061432 38.888035,53.898918 
	C44.465950,53.673817 50.042355,53.317215 55.622120,53.253101 
	C64.999069,53.145359 74.378166,53.223606 84.230919,53.223606 
	C83.539314,54.635563 83.190880,55.346920 82.363174,56.478943 
	C82.234756,57.312042 82.106346,58.145142 81.467171,59.024746 
	C81.288612,59.666523 81.110054,60.308304 80.248344,61.095936 
	C78.789696,63.675591 77.331047,66.255241 75.954346,69.040558 
	C75.767204,69.412262 75.580063,69.783966 75.869125,69.209816 
	C75.824631,69.701332 75.867516,69.227600 76.714081,68.431091 
	C78.156967,65.963593 79.599854,63.496086 81.503517,60.667080 
	C81.676262,60.118736 81.849014,59.570389 82.649834,58.930870 
M59.991287,6.384750 
	C59.635403,5.987557 59.279514,5.590364 58.013096,5.004104 
	C53.865932,4.998932 49.713905,4.867016 45.573025,5.025737 
	C41.753338,5.172146 37.945614,5.630508 34.012157,6.481518 
	C34.448071,6.619393 34.883980,6.757269 36.120007,7.046041 
	C43.768318,7.084109 51.416630,7.122177 59.110405,7.829731 
	C62.480362,13.610327 65.850319,19.390923 69.220276,25.171518 
	C69.833115,24.771620 70.445953,24.371721 71.058792,23.971821 
	C67.371284,18.311026 63.683781,12.650230 59.991287,6.384750 
M29.335846,15.279305 
	C25.097870,22.145510 20.859894,29.011715 16.621916,35.877922 
	C17.281042,36.251392 17.940166,36.624866 18.599293,36.998337 
	C22.425545,29.693405 26.251799,22.388474 30.833332,15.025059 
	C31.819532,14.487590 32.805733,13.950121 33.791935,13.412653 
	C32.868938,12.616691 31.945942,11.820727 30.331537,10.428518 
	C30.120743,12.728950 30.020142,13.826836 29.335846,15.279305 
M59.131985,48.813568 
	C60.916962,49.209099 62.695656,49.908779 64.488037,49.945812 
	C71.105789,50.082539 77.728065,50.000164 84.348640,50.000164 
	C84.356911,49.329731 84.365181,48.659294 84.373451,47.988861 
	C82.526688,47.988861 80.677879,48.045437 78.833527,47.978672 
	C72.244110,47.740131 65.656212,47.459743 58.975491,46.454628 
	C52.879406,34.534817 46.279148,22.928404 38.324165,12.154172 
	C42.515430,21.424812 47.372406,30.288042 52.462811,39.015114 
	C54.307503,42.177689 56.710476,45.014622 59.131985,48.813568 
M26.738216,72.657089 
	C24.839474,75.437553 27.096350,75.059631 28.626915,75.062347 
	C42.922928,75.087708 57.219028,75.092422 71.514977,75.054039 
	C72.333031,75.051849 73.149940,74.622078 73.967384,74.391304 
	C73.942566,73.984314 73.917747,73.577332 73.892929,73.170341 
	C72.398720,73.170341 70.904320,73.186066 69.410332,73.167900 
	C55.468796,72.998360 41.527328,72.823006 26.738216,72.657089 
M29.267500,56.789242 
	C26.481333,61.875389 23.695168,66.961540 20.909000,72.047684 
	C21.412971,72.311401 21.916941,72.575111 22.420912,72.838829 
	C30.083803,59.293255 37.746693,45.747681 45.409584,32.202106 
	C44.909958,31.928019 44.410332,31.653933 43.910706,31.379847 
	C39.187004,39.652733 34.463299,47.925617 29.267500,56.789242 
M18.113777,70.762337 
	C18.407722,71.401543 18.701670,72.040749 18.995617,72.679955 
	C19.375753,72.500435 19.755890,72.320908 20.136026,72.141380 
	C16.419069,64.923218 12.702114,57.705048 8.985731,50.487991 
	C6.834063,52.766853 11.810102,64.222183 18.113777,70.762337 
M36.568008,20.650045 
	C37.531746,22.621717 38.495480,24.593388 39.459217,26.565060 
	C40.073799,26.184828 40.688381,25.804596 41.302963,25.424364 
	C39.720428,23.641859 38.137894,21.859356 36.568008,20.650045 
M13.463117,45.519821 
	C14.620779,43.343189 15.778442,41.166561 16.936104,38.989929 
	C16.385822,38.763153 15.835541,38.536381 15.285259,38.309605 
	C14.475872,40.768497 13.666484,43.227390 13.463117,45.519821 
M81.443230,45.843609 
	C82.760170,42.829231 82.475822,42.356762 78.120110,41.327679 
	C79.185387,43.067707 79.988678,44.379795 81.443230,45.843609 
M32.787525,65.491661 
	C33.138054,64.653084 33.488579,63.814510 33.839108,62.975933 
	C33.552902,62.834656 33.266693,62.693375 32.980484,62.552094 
	C31.481852,65.136681 29.983221,67.721268 28.484591,70.305855 
	C28.870291,70.537125 29.255991,70.768387 29.641691,70.999649 
	C30.583042,69.362785 31.524393,67.725914 32.787525,65.491661 
M74.025116,31.729286 
	C73.320625,30.097500 72.616127,28.465712 71.911636,26.833925 
	C71.373100,27.190435 70.834564,27.546947 70.296036,27.903458 
	C71.324585,29.214836 72.353127,30.526215 74.025116,31.729286 
M77.646706,36.680519 
	C76.904213,35.777500 76.161720,34.874477 75.419228,33.971458 
	C75.080681,34.241734 74.742134,34.512009 74.403587,34.782280 
	C75.133972,36.030346 75.864365,37.278408 76.594749,38.526470 
	C77.110710,38.055233 77.626678,37.583996 77.646706,36.680519 
M11.039972,47.680519 
	C10.897120,47.921101 10.754268,48.161686 10.611415,48.402267 
	C10.858308,48.491913 11.105201,48.581558 11.352093,48.671204 
	C11.392023,48.314678 11.431952,47.958153 11.039972,47.680519 
M36.478592,7.776293 
	C36.335529,8.394707 36.192467,9.013120 36.049400,9.631533 
	C36.431870,9.703222 36.814342,9.774912 37.196812,9.846601 
	C37.204834,9.426937 37.212856,9.007274 36.478592,7.776293 
z"/>
<path fill="#BBBBBB" opacity="1.000000" stroke="none" 
	d="
M27.162029,72.653214 
	C41.527328,72.823006 55.468796,72.998360 69.410332,73.167900 
	C70.904320,73.186066 72.398720,73.170341 73.892929,73.170341 
	C73.917747,73.577332 73.942566,73.984314 73.967384,74.391304 
	C73.149940,74.622078 72.333031,75.051849 71.514977,75.054039 
	C57.219028,75.092422 42.922928,75.087708 28.626915,75.062347 
	C27.096350,75.059631 24.839474,75.437553 27.162029,72.653214 
z"/>
<path fill="#040404" opacity="1.000000" stroke="none" 
	d="
M58.858711,48.000145 
	C56.710476,45.014622 54.307503,42.177689 52.462811,39.015114 
	C47.372406,30.288042 42.515430,21.424812 38.324165,12.154172 
	C46.279148,22.928404 52.879406,34.534817 59.049145,47.046844 
	C59.122799,47.639057 58.858711,48.000145 58.858711,48.000145 
z"/>
<path fill="#070707" opacity="1.000000" stroke="none" 
	d="
M29.503548,56.493874 
	C34.463299,47.925617 39.187004,39.652733 43.910706,31.379847 
	C44.410332,31.653933 44.909958,31.928019 45.409584,32.202106 
	C37.746693,45.747681 30.083803,59.293255 22.420912,72.838829 
	C21.916941,72.575111 21.412971,72.311401 20.909000,72.047684 
	C23.695168,66.961540 26.481333,61.875389 29.503548,56.493874 
z"/>
<path fill="#070707" opacity="1.000000" stroke="none" 
	d="
M17.884747,70.559723 
	C11.810102,64.222183 6.834063,52.766853 8.985731,50.487991 
	C12.702114,57.705048 16.419069,64.923218 20.136026,72.141380 
	C19.755890,72.320908 19.375753,72.500435 18.995617,72.679955 
	C18.701670,72.040749 18.407722,71.401543 17.884747,70.559723 
z"/>
<path fill="#F8F8F8" opacity="1.000000" stroke="none" 
	d="
M82.842438,56.058273 
	C83.190880,55.346920 83.539314,54.635563 84.230919,53.223606 
	C74.378166,53.223606 64.999069,53.145359 55.622120,53.253101 
	C50.042355,53.317215 44.465950,53.673817 38.348347,53.842110 
	C37.808659,53.785297 37.549179,53.513618 37.549179,53.513618 
	C38.290771,52.988255 39.029728,52.008801 39.774342,52.004486 
	C55.121017,51.915497 70.468330,51.937531 86.397148,51.937531 
	C85.642715,53.600220 85.128372,54.733757 84.024582,56.037636 
	C83.237572,56.158070 83.040009,56.108173 82.842438,56.058273 
z"/>
<path fill="#B7B7B7" opacity="1.000000" stroke="none" 
	d="
M58.995346,48.406857 
	C58.858711,48.000145 59.122799,47.639057 59.095268,47.417122 
	C65.656212,47.459743 72.244110,47.740131 78.833527,47.978672 
	C80.677879,48.045437 82.526688,47.988861 84.373451,47.988861 
	C84.365181,48.659294 84.356911,49.329731 84.348640,50.000164 
	C77.728065,50.000164 71.105789,50.082539 64.488037,49.945812 
	C62.695656,49.908779 60.916962,49.209099 58.995346,48.406857 
z"/>
<path fill="#070707" opacity="1.000000" stroke="none" 
	d="
M30.078053,15.083542 
	C26.251799,22.388474 22.425545,29.693405 18.599293,36.998337 
	C17.940166,36.624866 17.281042,36.251392 16.621916,35.877922 
	C20.859894,29.011715 25.097870,22.145510 29.668070,15.140970 
	C30.000294,15.002636 30.078053,15.083543 30.078053,15.083542 
z"/>
<path fill="#D5D5D5" opacity="1.000000" stroke="none" 
	d="
M34.132618,5.951468 
	C37.945614,5.630508 41.753338,5.172146 45.573025,5.025737 
	C49.713905,4.867016 53.865932,4.998932 58.459568,5.365485 
	C58.904144,6.082741 58.902248,6.438616 58.866493,6.919683 
	C58.832630,7.044876 59.064941,7.160246 59.064941,7.160246 
	C51.416630,7.122177 43.768318,7.084109 35.449352,6.701598 
	C34.563339,6.221926 34.347977,6.086697 34.132618,5.951468 
z"/>
<path fill="#040404" opacity="1.000000" stroke="none" 
	d="
M59.996277,6.989435 
	C63.683781,12.650230 67.371284,18.311026 71.058792,23.971821 
	C70.445953,24.371721 69.833115,24.771620 69.220276,25.171518 
	C65.850319,19.390923 62.480362,13.610327 59.087673,7.494988 
	C59.064941,7.160246 58.832630,7.044876 59.123711,7.062670 
	C59.608616,7.050121 59.802448,7.019778 59.996277,6.989435 
z"/>
<path fill="#070707" opacity="1.000000" stroke="none" 
	d="
M36.561684,20.363449 
	C38.137894,21.859356 39.720428,23.641859 41.302963,25.424364 
	C40.688381,25.804596 40.073799,26.184828 39.459217,26.565060 
	C38.495480,24.593388 37.531746,22.621717 36.561684,20.363449 
z"/>
<path fill="#070707" opacity="1.000000" stroke="none" 
	d="
M13.160107,45.603050 
	C13.666484,43.227390 14.475872,40.768497 15.285259,38.309605 
	C15.835541,38.536381 16.385822,38.763153 16.936104,38.989929 
	C15.778442,41.166561 14.620779,43.343189 13.160107,45.603050 
z"/>
<path fill="#060606" opacity="1.000000" stroke="none" 
	d="
M81.042740,61.028587 
	C79.599854,63.496086 78.156967,65.963593 76.178909,68.545059 
	C75.643745,68.659027 75.872398,68.834900 75.872398,68.834900 
	C77.331047,66.255241 78.789696,63.675591 80.617622,61.042793 
	C80.986900,60.989651 81.042740,61.028587 81.042740,61.028587 
z"/>
<path fill="#040404" opacity="1.000000" stroke="none" 
	d="
M81.117599,45.767746 
	C79.988678,44.379795 79.185387,43.067707 78.120110,41.327679 
	C82.475822,42.356762 82.760170,42.829231 81.117599,45.767746 
z"/>
<path fill="#060606" opacity="1.000000" stroke="none" 
	d="
M32.626633,65.790359 
	C31.524393,67.725914 30.583042,69.362785 29.641691,70.999649 
	C29.255991,70.768387 28.870291,70.537125 28.484591,70.305855 
	C29.983221,67.721268 31.481852,65.136681 32.980484,62.552094 
	C33.266693,62.693375 33.552902,62.834656 33.839108,62.975933 
	C33.488579,63.814510 33.138054,64.653084 32.626633,65.790359 
z"/>
<path fill="#070707" opacity="1.000000" stroke="none" 
	d="
M29.959917,14.963678 
	C30.020142,13.826836 30.120743,12.728950 30.331537,10.428518 
	C31.945942,11.820727 32.868938,12.616691 33.791935,13.412653 
	C32.805733,13.950121 31.819532,14.487590 30.455692,15.054300 
	C30.078053,15.083543 30.000294,15.002636 29.959917,14.963678 
z"/>
<path fill="#040404" opacity="1.000000" stroke="none" 
	d="
M73.703400,31.783440 
	C72.353127,30.526215 71.324585,29.214836 70.296036,27.903458 
	C70.834564,27.546947 71.373100,27.190435 71.911636,26.833925 
	C72.616127,28.465712 73.320625,30.097500 73.703400,31.783440 
z"/>
<path fill="#040404" opacity="1.000000" stroke="none" 
	d="
M77.894676,36.896641 
	C77.626678,37.583996 77.110710,38.055233 76.594749,38.526470 
	C75.864365,37.278408 75.133972,36.030346 74.403587,34.782280 
	C74.742134,34.512009 75.080681,34.241734 75.419228,33.971458 
	C76.161720,34.874477 76.904213,35.777500 77.894676,36.896641 
z"/>
<path fill="#060606" opacity="1.000000" stroke="none" 
	d="
M37.993660,54.981182 
	C37.084839,57.011311 36.176018,59.041439 35.267197,61.071568 
	C34.669273,60.718651 34.071354,60.365738 33.473434,60.012825 
	C34.561897,58.455696 35.650364,56.898571 37.146805,55.103439 
	C37.554783,54.865440 37.993656,54.981182 37.993660,54.981182 
z"/>
<path fill="#BBBBBB" opacity="1.000000" stroke="none" 
	d="
M75.777077,68.706451 
	C75.867516,69.227600 75.824631,69.701332 75.869125,69.209816 
	C75.580063,69.783966 75.767204,69.412262 75.913376,68.937729 
	C75.872398,68.834900 75.643745,68.659027 75.777077,68.706451 
z"/>
<path fill="#060606" opacity="1.000000" stroke="none" 
	d="
M82.602806,56.268608 
	C83.040009,56.108173 83.237572,56.158070 83.723213,56.310104 
	C83.557472,57.251781 83.103653,58.091324 82.324783,58.965313 
	C81.999733,58.999756 81.977928,58.978241 81.977928,58.978241 
	C82.106346,58.145142 82.234756,57.312042 82.602806,56.268608 
z"/>
<path fill="#070707" opacity="1.000000" stroke="none" 
	d="
M11.255927,47.641075 
	C11.431952,47.958153 11.392023,48.314678 11.352093,48.671204 
	C11.105201,48.581558 10.858308,48.491913 10.611416,48.402267 
	C10.754268,48.161686 10.897120,47.921101 11.255927,47.641075 
z"/>
<path fill="#060606" opacity="1.000000" stroke="none" 
	d="
M80.959198,60.969864 
	C81.110054,60.308304 81.288612,59.666523 81.722549,59.001495 
	C81.977928,58.978241 81.999733,58.999756 82.010742,59.010902 
	C81.849014,59.570389 81.676262,60.118736 81.273132,60.847832 
	C81.042740,61.028587 80.986900,60.989651 80.959198,60.969864 
z"/>
<path fill="#9B9B9B" opacity="1.000000" stroke="none" 
	d="
M36.849735,8.181952 
	C37.212856,9.007274 37.204834,9.426937 37.196812,9.846601 
	C36.814342,9.774912 36.431870,9.703222 36.049400,9.631533 
	C36.192467,9.013120 36.335529,8.394707 36.849735,8.181952 
z"/>
<path fill="#9B9B9B" opacity="1.000000" stroke="none" 
	d="
M59.993782,6.687093 
	C59.802448,7.019778 59.608616,7.050121 59.157570,6.937477 
	C58.902248,6.438616 58.904144,6.082741 58.914833,5.460018 
	C59.279514,5.590364 59.635403,5.987557 59.993782,6.687093 
z"/>
<path fill="#F8F8F8" opacity="1.000000" stroke="none" 
	d="
M38.027763,54.752510 
	C37.993656,54.981182 37.554783,54.865440 37.333199,54.816437 
	C37.226067,54.483982 37.284927,54.189426 37.418686,53.698689 
	C37.549179,53.513618 37.808659,53.785297 37.936035,53.923363 
	C38.063408,54.061432 38.061867,54.523838 38.027763,54.752510 
z"/>
<path fill="#9B9B9B" opacity="1.000000" stroke="none" 
	d="
M34.072388,6.216493 
	C34.347977,6.086697 34.563339,6.221926 35.049294,6.626150 
	C34.883980,6.757269 34.448071,6.619393 34.072388,6.216493 
z"/>
<path fill="#070707" opacity="1.000000" stroke="none" 
	d="
M19.950567,75.067146 
	C19.842731,74.897949 19.734896,74.728752 19.627060,74.559555 
	C19.726807,74.598969 19.826551,74.638382 19.966831,74.839935 
	C20.007364,75.002083 19.950567,75.067146 19.950567,75.067146 
z"/>
<path fill="#070707" opacity="1.000000" stroke="none" 
	d="
M20.040127,74.973953 
	C20.173405,75.108055 20.273918,75.270287 20.374432,75.432518 
	C20.281740,75.393501 20.189047,75.354485 20.023460,75.191307 
	C19.950567,75.067146 20.007364,75.002083 20.040127,74.973953 
z"/>
</svg>